<?xml version="1.0" encoding="utf-8" standalone="no"?>
<!DOCTYPE svg PUBLIC "-//W3C//DTD SVG 1.1//EN"
  "http://www.w3.org/Graphics/SVG/1.1/DTD/svg11.dtd">
<svg xmlns:xlink="http://www.w3.org/1999/xlink" width="460.8pt" height="345.6pt" viewBox="0 0 460.8 345.6" xmlns="http://www.w3.org/2000/svg" version="1.1">
 <metadata>
  <rdf:RDF xmlns:dc="http://purl.org/dc/elements/1.1/" xmlns:cc="http://creativecommons.org/ns#" xmlns:rdf="http://www.w3.org/1999/02/22-rdf-syntax-ns#">
   <cc:Work>
    <dc:type rdf:resource="http://purl.org/dc/dcmitype/StillImage"/>
    <dc:date>2023-06-01T23:14:05.444033</dc:date>
    <dc:format>image/svg+xml</dc:format>
    <dc:creator>
     <cc:Agent>
      <dc:title>Matplotlib v3.7.1, https://matplotlib.org/</dc:title>
     </cc:Agent>
    </dc:creator>
   </cc:Work>
  </rdf:RDF>
 </metadata>
 <defs>
  <style type="text/css">*{stroke-linejoin: round; stroke-linecap: butt}</style>
 </defs>
 <g id="figure_1">
  <g id="patch_1">
   <path d="M 0 345.6 
L 460.8 345.6 
L 460.8 0 
L 0 0 
z
" style="fill: #ffffff"/>
  </g>
  <g id="axes_1">
   <g id="patch_2">
    <path d="M 57.6 307.584 
L 414.72 307.584 
L 414.72 41.472 
L 57.6 41.472 
z
" style="fill: #ffffff"/>
   </g>
   <g id="PolyCollection_1">
    <defs>
     <path id="m6877f19b13" d="M 57.6 -38.016 
L 57.6 -38.016 
L 57.6 -38.016 
L 57.6 -38.660885 
L 57.6 -38.660885 
L 57.6 -39.305771 
L 57.6 -39.305771 
L 57.6 -41.885313 
L 57.6 -41.885313 
L 57.6 -44.464855 
L 58.456403 -44.464855 
L 58.456403 -44.464855 
L 58.456403 -44.464855 
L 58.456403 -45.10974 
L 58.456403 -45.10974 
L 58.456403 -46.399511 
L 58.456403 -46.399511 
L 58.456403 -50.268824 
L 59.312806 -50.268824 
L 59.312806 -50.268824 
L 59.312806 -50.268824 
L 59.312806 -51.558595 
L 59.312806 -51.558595 
L 59.312806 -52.203481 
L 59.312806 -52.203481 
L 59.312806 -53.493252 
L 59.312806 -53.493252 
L 59.312806 -56.072794 
L 60.169209 -56.072794 
L 60.169209 -56.072794 
L 60.169209 -56.072794 
L 60.169209 -61.876763 
L 61.025612 -61.876763 
L 61.025612 -61.876763 
L 61.025612 -61.876763 
L 61.025612 -63.81142 
L 61.882014 -63.81142 
L 61.882014 -63.81142 
L 61.882014 -63.81142 
L 61.882014 -65.101191 
L 61.882014 -65.101191 
L 61.882014 -71.550046 
L 62.738417 -71.550046 
L 62.738417 -71.550046 
L 62.738417 -71.550046 
L 62.738417 -74.774473 
L 63.59482 -74.774473 
L 63.59482 -74.774473 
L 63.59482 -74.774473 
L 63.59482 -81.223328 
L 64.451223 -81.223328 
L 64.451223 -81.868214 
L 64.451223 -81.868214 
L 64.451223 -83.80287 
L 65.307626 -83.80287 
L 65.307626 -83.80287 
L 65.307626 -83.80287 
L 65.307626 -90.251725 
L 66.164029 -90.251725 
L 66.164029 -90.251725 
L 66.164029 -90.251725 
L 66.164029 -94.765924 
L 67.020432 -94.765924 
L 67.020432 -94.765924 
L 67.020432 -94.765924 
L 67.020432 -99.280122 
L 67.876835 -99.280122 
L 67.876835 -99.280122 
L 67.876835 -99.280122 
L 67.876835 -99.925008 
L 68.733237 -99.925008 
L 68.733237 -99.925008 
L 68.733237 -99.925008 
L 68.733237 -113.467603 
L 69.58964 -113.467603 
L 69.58964 -113.467603 
L 69.58964 -113.467603 
L 69.58964 -118.626687 
L 70.446043 -118.626687 
L 70.446043 -118.626687 
L 70.446043 -118.626687 
L 70.446043 -121.851115 
L 72.158849 -121.851115 
L 72.158849 -121.851115 
L 72.158849 -121.851115 
L 72.158849 -125.075542 
L 73.015252 -125.075542 
L 73.015252 -125.075542 
L 73.015252 -125.075542 
L 73.015252 -144.422107 
L 73.871655 -144.422107 
L 73.871655 -144.422107 
L 73.871655 -144.422107 
L 73.871655 -150.226076 
L 74.728058 -150.226076 
L 74.728058 -150.226076 
L 74.728058 -150.226076 
L 74.728058 -156.674931 
L 75.58446 -156.674931 
L 75.58446 -156.674931 
L 75.58446 -156.674931 
L 75.58446 -159.899359 
L 76.440863 -159.899359 
L 76.440863 -159.899359 
L 76.440863 -159.899359 
L 76.440863 -163.768672 
L 77.297266 -163.768672 
L 77.297266 -163.768672 
L 77.297266 -163.768672 
L 77.297266 -166.993099 
L 78.153669 -166.993099 
L 78.153669 -166.993099 
L 78.153669 -166.993099 
L 78.153669 -172.797069 
L 79.866475 -172.797069 
L 79.866475 -172.797069 
L 79.866475 -172.797069 
L 79.866475 -176.021496 
L 81.579281 -176.021496 
L 81.579281 -176.021496 
L 81.579281 -176.021496 
L 81.579281 -181.825466 
L 83.292086 -181.825466 
L 83.292086 -181.825466 
L 83.292086 -181.825466 
L 83.292086 -188.919206 
L 84.148489 -188.919206 
L 84.148489 -188.919206 
L 84.148489 -188.919206 
L 84.148489 -193.433405 
L 85.004892 -193.433405 
L 85.004892 -193.433405 
L 85.004892 -193.433405 
L 85.004892 -194.07829 
L 85.861295 -194.07829 
L 85.861295 -194.07829 
L 85.861295 -194.07829 
L 85.861295 -196.012947 
L 86.717698 -196.012947 
L 86.717698 -196.012947 
L 86.717698 -196.012947 
L 86.717698 -196.657832 
L 87.574101 -196.657832 
L 87.574101 -196.657832 
L 87.574101 -196.657832 
L 87.574101 -200.527145 
L 88.430504 -200.527145 
L 88.430504 -200.527145 
L 88.430504 -200.527145 
L 88.430504 -202.461802 
L 89.286906 -202.461802 
L 89.286906 -202.461802 
L 89.286906 -202.461802 
L 89.286906 -203.106687 
L 90.143309 -203.106687 
L 90.143309 -203.106687 
L 90.143309 -203.106687 
L 90.143309 -204.396458 
L 90.999712 -204.396458 
L 90.999712 -204.396458 
L 90.999712 -204.396458 
L 90.999712 -205.686229 
L 91.856115 -205.686229 
L 91.856115 -205.686229 
L 91.856115 -205.686229 
L 91.856115 -206.331115 
L 92.712518 -206.331115 
L 92.712518 -206.331115 
L 92.712518 -206.331115 
L 92.712518 -206.976 
L 95.281727 -206.976 
L 95.281727 -206.976 
L 95.281727 -206.976 
L 95.281727 -209.555542 
L 96.138129 -209.555542 
L 96.138129 -209.555542 
L 96.138129 -209.555542 
L 96.138129 -214.06974 
L 96.994532 -214.06974 
L 96.994532 -214.06974 
L 96.994532 -214.06974 
L 96.994532 -216.004397 
L 101.276547 -216.004397 
L 101.276547 -216.004397 
L 101.276547 -216.004397 
L 101.276547 -217.294168 
L 102.13295 -217.294168 
L 102.13295 -217.294168 
L 102.13295 -217.294168 
L 102.13295 -219.228824 
L 104.702158 -219.228824 
L 104.702158 -219.228824 
L 104.702158 -219.228824 
L 104.702158 -221.163481 
L 106.414964 -221.163481 
L 106.414964 -221.163481 
L 106.414964 -221.163481 
L 106.414964 -221.808366 
L 108.12777 -221.808366 
L 108.12777 -221.808366 
L 108.12777 -221.808366 
L 108.12777 -224.387908 
L 110.696978 -224.387908 
L 110.696978 -224.387908 
L 110.696978 -224.387908 
L 110.696978 -225.032794 
L 111.553381 -225.032794 
L 111.553381 -225.032794 
L 111.553381 -225.032794 
L 111.553381 -226.322565 
L 113.266187 -226.322565 
L 113.266187 -226.322565 
L 113.266187 -226.322565 
L 113.266187 -226.96745 
L 114.12259 -226.96745 
L 114.12259 -226.96745 
L 114.12259 -226.96745 
L 114.12259 -228.902107 
L 114.978993 -228.902107 
L 114.978993 -228.902107 
L 114.978993 -228.902107 
L 114.978993 -231.481649 
L 116.691799 -231.481649 
L 116.691799 -231.481649 
L 116.691799 -231.481649 
L 116.691799 -232.126534 
L 117.548201 -232.126534 
L 117.548201 -232.126534 
L 117.548201 -232.126534 
L 117.548201 -233.416305 
L 118.404604 -233.416305 
L 118.404604 -233.416305 
L 118.404604 -233.416305 
L 118.404604 -234.061191 
L 120.973813 -234.061191 
L 120.973813 -234.061191 
L 120.973813 -234.061191 
L 120.973813 -234.706076 
L 121.830216 -234.706076 
L 121.830216 -234.706076 
L 121.830216 -234.706076 
L 121.830216 -235.350962 
L 124.399424 -235.350962 
L 124.399424 -235.350962 
L 124.399424 -235.350962 
L 124.399424 -237.930504 
L 126.11223 -237.930504 
L 126.11223 -237.930504 
L 126.11223 -237.930504 
L 126.11223 -238.575389 
L 126.968633 -238.575389 
L 126.968633 -238.575389 
L 126.968633 -238.575389 
L 126.968633 -243.089588 
L 127.825036 -243.089588 
L 127.825036 -243.089588 
L 127.825036 -243.089588 
L 127.825036 -243.734473 
L 133.819856 -243.734473 
L 133.819856 -243.734473 
L 133.819856 -243.734473 
L 133.819856 -244.379359 
L 134.676259 -244.379359 
L 134.676259 -244.379359 
L 134.676259 -244.379359 
L 134.676259 -245.66913 
L 136.389065 -245.66913 
L 136.389065 -245.66913 
L 136.389065 -245.66913 
L 136.389065 -247.603786 
L 138.101871 -247.603786 
L 138.101871 -247.603786 
L 138.101871 -247.603786 
L 138.101871 -248.248672 
L 138.958273 -248.248672 
L 138.958273 -248.248672 
L 138.958273 -248.248672 
L 138.958273 -248.893557 
L 140.671079 -248.893557 
L 140.671079 -248.893557 
L 140.671079 -248.893557 
L 140.671079 -249.538443 
L 142.383885 -249.538443 
L 142.383885 -249.538443 
L 142.383885 -249.538443 
L 142.383885 -250.828214 
L 144.096691 -250.828214 
L 144.096691 -250.828214 
L 144.096691 -250.828214 
L 144.096691 -251.473099 
L 146.665899 -251.473099 
L 146.665899 -251.473099 
L 146.665899 -251.473099 
L 146.665899 -252.117985 
L 150.091511 -252.117985 
L 150.091511 -252.117985 
L 150.091511 -252.117985 
L 150.091511 -252.76287 
L 151.804317 -252.76287 
L 151.804317 -252.76287 
L 151.804317 -252.76287 
L 151.804317 -254.052641 
L 156.942734 -254.052641 
L 156.942734 -254.052641 
L 156.942734 -254.052641 
L 156.942734 -255.342412 
L 164.65036 -255.342412 
L 164.65036 -255.342412 
L 164.65036 -255.342412 
L 164.65036 -256.632183 
L 165.506763 -256.632183 
L 165.506763 -256.632183 
L 165.506763 -256.632183 
L 165.506763 -257.277069 
L 166.363165 -257.277069 
L 166.363165 -257.277069 
L 166.363165 -257.277069 
L 166.363165 -257.921954 
L 182.63482 -257.921954 
L 182.63482 -257.921954 
L 182.63482 -257.921954 
L 182.63482 -258.56684 
L 185.204029 -258.56684 
L 185.204029 -258.56684 
L 185.204029 -258.56684 
L 185.204029 -259.211725 
L 186.916835 -259.211725 
L 186.916835 -259.211725 
L 186.916835 -259.211725 
L 186.916835 -259.856611 
L 189.486043 -259.856611 
L 189.486043 -259.856611 
L 189.486043 -259.856611 
L 189.486043 -260.501496 
L 193.768058 -260.501496 
L 193.768058 -260.501496 
L 193.768058 -260.501496 
L 193.768058 -261.146382 
L 201.475683 -261.146382 
L 201.475683 -261.146382 
L 201.475683 -261.146382 
L 201.475683 -261.791267 
L 213.465324 -261.791267 
L 213.465324 -261.791267 
L 213.465324 -261.791267 
L 213.465324 -262.436153 
L 214.321727 -262.436153 
L 214.321727 -262.436153 
L 214.321727 -262.436153 
L 214.321727 -263.081038 
L 222.029353 -263.081038 
L 222.029353 -263.081038 
L 222.029353 -263.081038 
L 222.029353 -263.725924 
L 223.742158 -263.725924 
L 223.742158 -263.725924 
L 223.742158 -263.725924 
L 223.742158 -264.370809 
L 228.880576 -264.370809 
L 228.880576 -264.370809 
L 228.880576 -264.370809 
L 228.880576 -265.015695 
L 238.301007 -265.015695 
L 238.301007 -265.015695 
L 238.301007 -265.015695 
L 238.301007 -265.66058 
L 257.141871 -265.66058 
L 257.141871 -265.66058 
L 257.141871 -265.66058 
L 257.141871 -266.305466 
L 305.100432 -266.305466 
L 305.100432 -266.305466 
L 306.813237 -266.305466 
L 306.813237 -266.305466 
L 329.079712 -266.305466 
L 329.079712 -266.305466 
L 329.079712 -266.305466 
L 329.079712 -266.950351 
L 375.325468 -266.950351 
L 375.325468 -266.950351 
L 414.72 -266.950351 
L 414.72 -291.456 
L 414.72 -38.016 
L 414.72 -38.016 
L 414.72 -38.016 
L 375.325468 -38.016 
L 375.325468 -38.016 
L 329.079712 -38.016 
L 329.079712 -38.016 
L 329.079712 -38.016 
L 329.079712 -38.016 
L 306.813237 -38.016 
L 306.813237 -38.016 
L 305.100432 -38.016 
L 305.100432 -38.016 
L 257.141871 -38.016 
L 257.141871 -38.016 
L 257.141871 -38.016 
L 257.141871 -38.016 
L 238.301007 -38.016 
L 238.301007 -38.016 
L 238.301007 -38.016 
L 238.301007 -38.016 
L 228.880576 -38.016 
L 228.880576 -38.016 
L 228.880576 -38.016 
L 228.880576 -38.016 
L 223.742158 -38.016 
L 223.742158 -38.016 
L 223.742158 -38.016 
L 223.742158 -38.016 
L 222.029353 -38.016 
L 222.029353 -38.016 
L 222.029353 -38.016 
L 222.029353 -38.016 
L 214.321727 -38.016 
L 214.321727 -38.016 
L 214.321727 -38.016 
L 214.321727 -38.016 
L 213.465324 -38.016 
L 213.465324 -38.016 
L 213.465324 -38.016 
L 213.465324 -38.016 
L 201.475683 -38.016 
L 201.475683 -38.016 
L 201.475683 -38.016 
L 201.475683 -38.016 
L 193.768058 -38.016 
L 193.768058 -38.016 
L 193.768058 -38.016 
L 193.768058 -38.016 
L 189.486043 -38.016 
L 189.486043 -38.016 
L 189.486043 -38.016 
L 189.486043 -38.016 
L 186.916835 -38.016 
L 186.916835 -38.016 
L 186.916835 -38.016 
L 186.916835 -38.016 
L 185.204029 -38.016 
L 185.204029 -38.016 
L 185.204029 -38.016 
L 185.204029 -38.016 
L 182.63482 -38.016 
L 182.63482 -38.016 
L 182.63482 -38.016 
L 182.63482 -38.016 
L 166.363165 -38.016 
L 166.363165 -38.016 
L 166.363165 -38.016 
L 166.363165 -38.016 
L 165.506763 -38.016 
L 165.506763 -38.016 
L 165.506763 -38.016 
L 165.506763 -38.016 
L 164.65036 -38.016 
L 164.65036 -38.016 
L 164.65036 -38.016 
L 164.65036 -38.016 
L 156.942734 -38.016 
L 156.942734 -38.016 
L 156.942734 -38.016 
L 156.942734 -38.016 
L 151.804317 -38.016 
L 151.804317 -38.016 
L 151.804317 -38.016 
L 151.804317 -38.016 
L 150.091511 -38.016 
L 150.091511 -38.016 
L 150.091511 -38.016 
L 150.091511 -38.016 
L 146.665899 -38.016 
L 146.665899 -38.016 
L 146.665899 -38.016 
L 146.665899 -38.016 
L 144.096691 -38.016 
L 144.096691 -38.016 
L 144.096691 -38.016 
L 144.096691 -38.016 
L 142.383885 -38.016 
L 142.383885 -38.016 
L 142.383885 -38.016 
L 142.383885 -38.016 
L 140.671079 -38.016 
L 140.671079 -38.016 
L 140.671079 -38.016 
L 140.671079 -38.016 
L 138.958273 -38.016 
L 138.958273 -38.016 
L 138.958273 -38.016 
L 138.958273 -38.016 
L 138.101871 -38.016 
L 138.101871 -38.016 
L 138.101871 -38.016 
L 138.101871 -38.016 
L 136.389065 -38.016 
L 136.389065 -38.016 
L 136.389065 -38.016 
L 136.389065 -38.016 
L 134.676259 -38.016 
L 134.676259 -38.016 
L 134.676259 -38.016 
L 134.676259 -38.016 
L 133.819856 -38.016 
L 133.819856 -38.016 
L 133.819856 -38.016 
L 133.819856 -38.016 
L 127.825036 -38.016 
L 127.825036 -38.016 
L 127.825036 -38.016 
L 127.825036 -38.016 
L 126.968633 -38.016 
L 126.968633 -38.016 
L 126.968633 -38.016 
L 126.968633 -38.016 
L 126.11223 -38.016 
L 126.11223 -38.016 
L 126.11223 -38.016 
L 126.11223 -38.016 
L 124.399424 -38.016 
L 124.399424 -38.016 
L 124.399424 -38.016 
L 124.399424 -38.016 
L 121.830216 -38.016 
L 121.830216 -38.016 
L 121.830216 -38.016 
L 121.830216 -38.016 
L 120.973813 -38.016 
L 120.973813 -38.016 
L 120.973813 -38.016 
L 120.973813 -38.016 
L 118.404604 -38.016 
L 118.404604 -38.016 
L 118.404604 -38.016 
L 118.404604 -38.016 
L 117.548201 -38.016 
L 117.548201 -38.016 
L 117.548201 -38.016 
L 117.548201 -38.016 
L 116.691799 -38.016 
L 116.691799 -38.016 
L 116.691799 -38.016 
L 116.691799 -38.016 
L 114.978993 -38.016 
L 114.978993 -38.016 
L 114.978993 -38.016 
L 114.978993 -38.016 
L 114.12259 -38.016 
L 114.12259 -38.016 
L 114.12259 -38.016 
L 114.12259 -38.016 
L 113.266187 -38.016 
L 113.266187 -38.016 
L 113.266187 -38.016 
L 113.266187 -38.016 
L 111.553381 -38.016 
L 111.553381 -38.016 
L 111.553381 -38.016 
L 111.553381 -38.016 
L 110.696978 -38.016 
L 110.696978 -38.016 
L 110.696978 -38.016 
L 110.696978 -38.016 
L 108.12777 -38.016 
L 108.12777 -38.016 
L 108.12777 -38.016 
L 108.12777 -38.016 
L 106.414964 -38.016 
L 106.414964 -38.016 
L 106.414964 -38.016 
L 106.414964 -38.016 
L 104.702158 -38.016 
L 104.702158 -38.016 
L 104.702158 -38.016 
L 104.702158 -38.016 
L 102.13295 -38.016 
L 102.13295 -38.016 
L 102.13295 -38.016 
L 102.13295 -38.016 
L 101.276547 -38.016 
L 101.276547 -38.016 
L 101.276547 -38.016 
L 101.276547 -38.016 
L 96.994532 -38.016 
L 96.994532 -38.016 
L 96.994532 -38.016 
L 96.994532 -38.016 
L 96.138129 -38.016 
L 96.138129 -38.016 
L 96.138129 -38.016 
L 96.138129 -38.016 
L 95.281727 -38.016 
L 95.281727 -38.016 
L 95.281727 -38.016 
L 95.281727 -38.016 
L 92.712518 -38.016 
L 92.712518 -38.016 
L 92.712518 -38.016 
L 92.712518 -38.016 
L 91.856115 -38.016 
L 91.856115 -38.016 
L 91.856115 -38.016 
L 91.856115 -38.016 
L 90.999712 -38.016 
L 90.999712 -38.016 
L 90.999712 -38.016 
L 90.999712 -38.016 
L 90.143309 -38.016 
L 90.143309 -38.016 
L 90.143309 -38.016 
L 90.143309 -38.016 
L 89.286906 -38.016 
L 89.286906 -38.016 
L 89.286906 -38.016 
L 89.286906 -38.016 
L 88.430504 -38.016 
L 88.430504 -38.016 
L 88.430504 -38.016 
L 88.430504 -38.016 
L 87.574101 -38.016 
L 87.574101 -38.016 
L 87.574101 -38.016 
L 87.574101 -38.016 
L 86.717698 -38.016 
L 86.717698 -38.016 
L 86.717698 -38.016 
L 86.717698 -38.016 
L 85.861295 -38.016 
L 85.861295 -38.016 
L 85.861295 -38.016 
L 85.861295 -38.016 
L 85.004892 -38.016 
L 85.004892 -38.016 
L 85.004892 -38.016 
L 85.004892 -38.016 
L 84.148489 -38.016 
L 84.148489 -38.016 
L 84.148489 -38.016 
L 84.148489 -38.016 
L 83.292086 -38.016 
L 83.292086 -38.016 
L 83.292086 -38.016 
L 83.292086 -38.016 
L 81.579281 -38.016 
L 81.579281 -38.016 
L 81.579281 -38.016 
L 81.579281 -38.016 
L 79.866475 -38.016 
L 79.866475 -38.016 
L 79.866475 -38.016 
L 79.866475 -38.016 
L 78.153669 -38.016 
L 78.153669 -38.016 
L 78.153669 -38.016 
L 78.153669 -38.016 
L 77.297266 -38.016 
L 77.297266 -38.016 
L 77.297266 -38.016 
L 77.297266 -38.016 
L 76.440863 -38.016 
L 76.440863 -38.016 
L 76.440863 -38.016 
L 76.440863 -38.016 
L 75.58446 -38.016 
L 75.58446 -38.016 
L 75.58446 -38.016 
L 75.58446 -38.016 
L 74.728058 -38.016 
L 74.728058 -38.016 
L 74.728058 -38.016 
L 74.728058 -38.016 
L 73.871655 -38.016 
L 73.871655 -38.016 
L 73.871655 -38.016 
L 73.871655 -38.016 
L 73.015252 -38.016 
L 73.015252 -38.016 
L 73.015252 -38.016 
L 73.015252 -38.016 
L 72.158849 -38.016 
L 72.158849 -38.016 
L 72.158849 -38.016 
L 72.158849 -38.016 
L 70.446043 -38.016 
L 70.446043 -38.016 
L 70.446043 -38.016 
L 70.446043 -38.016 
L 69.58964 -38.016 
L 69.58964 -38.016 
L 69.58964 -38.016 
L 69.58964 -38.016 
L 68.733237 -38.016 
L 68.733237 -38.016 
L 68.733237 -38.016 
L 68.733237 -38.016 
L 67.876835 -38.016 
L 67.876835 -38.016 
L 67.876835 -38.016 
L 67.876835 -38.016 
L 67.020432 -38.016 
L 67.020432 -38.016 
L 67.020432 -38.016 
L 67.020432 -38.016 
L 66.164029 -38.016 
L 66.164029 -38.016 
L 66.164029 -38.016 
L 66.164029 -38.016 
L 65.307626 -38.016 
L 65.307626 -38.016 
L 65.307626 -38.016 
L 65.307626 -38.016 
L 64.451223 -38.016 
L 64.451223 -38.016 
L 64.451223 -38.016 
L 64.451223 -38.016 
L 63.59482 -38.016 
L 63.59482 -38.016 
L 63.59482 -38.016 
L 63.59482 -38.016 
L 62.738417 -38.016 
L 62.738417 -38.016 
L 62.738417 -38.016 
L 62.738417 -38.016 
L 61.882014 -38.016 
L 61.882014 -38.016 
L 61.882014 -38.016 
L 61.882014 -38.016 
L 61.882014 -38.016 
L 61.882014 -38.016 
L 61.025612 -38.016 
L 61.025612 -38.016 
L 61.025612 -38.016 
L 61.025612 -38.016 
L 60.169209 -38.016 
L 60.169209 -38.016 
L 60.169209 -38.016 
L 60.169209 -38.016 
L 59.312806 -38.016 
L 59.312806 -38.016 
L 59.312806 -38.016 
L 59.312806 -38.016 
L 59.312806 -38.016 
L 59.312806 -38.016 
L 59.312806 -38.016 
L 59.312806 -38.016 
L 59.312806 -38.016 
L 59.312806 -38.016 
L 58.456403 -38.016 
L 58.456403 -38.016 
L 58.456403 -38.016 
L 58.456403 -38.016 
L 58.456403 -38.016 
L 58.456403 -38.016 
L 58.456403 -38.016 
L 58.456403 -38.016 
L 57.6 -38.016 
L 57.6 -38.016 
L 57.6 -38.016 
L 57.6 -38.016 
L 57.6 -38.016 
L 57.6 -38.016 
L 57.6 -38.016 
L 57.6 -38.016 
L 57.6 -38.016 
z
" style="stroke: #0000ff; stroke-opacity: 0.2"/>
    </defs>
    <g clip-path="url(#p663df6b362)">
     <use xlink:href="#m6877f19b13" x="0" y="345.6" style="fill: #0000ff; fill-opacity: 0.2; stroke: #0000ff; stroke-opacity: 0.2"/>
    </g>
   </g>
   <g id="matplotlib.axis_1">
    <g id="xtick_1">
     <g id="line2d_1">
      <defs>
       <path id="me1fc65a7cf" d="M 0 0 
L 0 3.5 
" style="stroke: #000000; stroke-width: 0.8"/>
      </defs>
      <g>
       <use xlink:href="#me1fc65a7cf" x="57.6" y="307.584" style="stroke: #000000; stroke-width: 0.8"/>
      </g>
     </g>
     <g id="text_1">
      <!-- 0.0 -->
      <g transform="translate(49.648438 322.182437) scale(0.1 -0.1)">
       <defs>
        <path id="DejaVuSans-30" d="M 2034 4250 
Q 1547 4250 1301 3770 
Q 1056 3291 1056 2328 
Q 1056 1369 1301 889 
Q 1547 409 2034 409 
Q 2525 409 2770 889 
Q 3016 1369 3016 2328 
Q 3016 3291 2770 3770 
Q 2525 4250 2034 4250 
z
M 2034 4750 
Q 2819 4750 3233 4129 
Q 3647 3509 3647 2328 
Q 3647 1150 3233 529 
Q 2819 -91 2034 -91 
Q 1250 -91 836 529 
Q 422 1150 422 2328 
Q 422 3509 836 4129 
Q 1250 4750 2034 4750 
z
" transform="scale(0.015625)"/>
        <path id="DejaVuSans-2e" d="M 684 794 
L 1344 794 
L 1344 0 
L 684 0 
L 684 794 
z
" transform="scale(0.015625)"/>
       </defs>
       <use xlink:href="#DejaVuSans-30"/>
       <use xlink:href="#DejaVuSans-2e" x="63.623047"/>
       <use xlink:href="#DejaVuSans-30" x="95.410156"/>
      </g>
     </g>
    </g>
    <g id="xtick_2">
     <g id="line2d_2">
      <g>
       <use xlink:href="#me1fc65a7cf" x="129.024" y="307.584" style="stroke: #000000; stroke-width: 0.8"/>
      </g>
     </g>
     <g id="text_2">
      <!-- 0.2 -->
      <g transform="translate(121.072438 322.182437) scale(0.1 -0.1)">
       <defs>
        <path id="DejaVuSans-32" d="M 1228 531 
L 3431 531 
L 3431 0 
L 469 0 
L 469 531 
Q 828 903 1448 1529 
Q 2069 2156 2228 2338 
Q 2531 2678 2651 2914 
Q 2772 3150 2772 3378 
Q 2772 3750 2511 3984 
Q 2250 4219 1831 4219 
Q 1534 4219 1204 4116 
Q 875 4013 500 3803 
L 500 4441 
Q 881 4594 1212 4672 
Q 1544 4750 1819 4750 
Q 2544 4750 2975 4387 
Q 3406 4025 3406 3419 
Q 3406 3131 3298 2873 
Q 3191 2616 2906 2266 
Q 2828 2175 2409 1742 
Q 1991 1309 1228 531 
z
" transform="scale(0.015625)"/>
       </defs>
       <use xlink:href="#DejaVuSans-30"/>
       <use xlink:href="#DejaVuSans-2e" x="63.623047"/>
       <use xlink:href="#DejaVuSans-32" x="95.410156"/>
      </g>
     </g>
    </g>
    <g id="xtick_3">
     <g id="line2d_3">
      <g>
       <use xlink:href="#me1fc65a7cf" x="200.448" y="307.584" style="stroke: #000000; stroke-width: 0.8"/>
      </g>
     </g>
     <g id="text_3">
      <!-- 0.4 -->
      <g transform="translate(192.496438 322.182437) scale(0.1 -0.1)">
       <defs>
        <path id="DejaVuSans-34" d="M 2419 4116 
L 825 1625 
L 2419 1625 
L 2419 4116 
z
M 2253 4666 
L 3047 4666 
L 3047 1625 
L 3713 1625 
L 3713 1100 
L 3047 1100 
L 3047 0 
L 2419 0 
L 2419 1100 
L 313 1100 
L 313 1709 
L 2253 4666 
z
" transform="scale(0.015625)"/>
       </defs>
       <use xlink:href="#DejaVuSans-30"/>
       <use xlink:href="#DejaVuSans-2e" x="63.623047"/>
       <use xlink:href="#DejaVuSans-34" x="95.410156"/>
      </g>
     </g>
    </g>
    <g id="xtick_4">
     <g id="line2d_4">
      <g>
       <use xlink:href="#me1fc65a7cf" x="271.872" y="307.584" style="stroke: #000000; stroke-width: 0.8"/>
      </g>
     </g>
     <g id="text_4">
      <!-- 0.6 -->
      <g transform="translate(263.920438 322.182437) scale(0.1 -0.1)">
       <defs>
        <path id="DejaVuSans-36" d="M 2113 2584 
Q 1688 2584 1439 2293 
Q 1191 2003 1191 1497 
Q 1191 994 1439 701 
Q 1688 409 2113 409 
Q 2538 409 2786 701 
Q 3034 994 3034 1497 
Q 3034 2003 2786 2293 
Q 2538 2584 2113 2584 
z
M 3366 4563 
L 3366 3988 
Q 3128 4100 2886 4159 
Q 2644 4219 2406 4219 
Q 1781 4219 1451 3797 
Q 1122 3375 1075 2522 
Q 1259 2794 1537 2939 
Q 1816 3084 2150 3084 
Q 2853 3084 3261 2657 
Q 3669 2231 3669 1497 
Q 3669 778 3244 343 
Q 2819 -91 2113 -91 
Q 1303 -91 875 529 
Q 447 1150 447 2328 
Q 447 3434 972 4092 
Q 1497 4750 2381 4750 
Q 2619 4750 2861 4703 
Q 3103 4656 3366 4563 
z
" transform="scale(0.015625)"/>
       </defs>
       <use xlink:href="#DejaVuSans-30"/>
       <use xlink:href="#DejaVuSans-2e" x="63.623047"/>
       <use xlink:href="#DejaVuSans-36" x="95.410156"/>
      </g>
     </g>
    </g>
    <g id="xtick_5">
     <g id="line2d_5">
      <g>
       <use xlink:href="#me1fc65a7cf" x="343.296" y="307.584" style="stroke: #000000; stroke-width: 0.8"/>
      </g>
     </g>
     <g id="text_5">
      <!-- 0.8 -->
      <g transform="translate(335.344438 322.182437) scale(0.1 -0.1)">
       <defs>
        <path id="DejaVuSans-38" d="M 2034 2216 
Q 1584 2216 1326 1975 
Q 1069 1734 1069 1313 
Q 1069 891 1326 650 
Q 1584 409 2034 409 
Q 2484 409 2743 651 
Q 3003 894 3003 1313 
Q 3003 1734 2745 1975 
Q 2488 2216 2034 2216 
z
M 1403 2484 
Q 997 2584 770 2862 
Q 544 3141 544 3541 
Q 544 4100 942 4425 
Q 1341 4750 2034 4750 
Q 2731 4750 3128 4425 
Q 3525 4100 3525 3541 
Q 3525 3141 3298 2862 
Q 3072 2584 2669 2484 
Q 3125 2378 3379 2068 
Q 3634 1759 3634 1313 
Q 3634 634 3220 271 
Q 2806 -91 2034 -91 
Q 1263 -91 848 271 
Q 434 634 434 1313 
Q 434 1759 690 2068 
Q 947 2378 1403 2484 
z
M 1172 3481 
Q 1172 3119 1398 2916 
Q 1625 2713 2034 2713 
Q 2441 2713 2670 2916 
Q 2900 3119 2900 3481 
Q 2900 3844 2670 4047 
Q 2441 4250 2034 4250 
Q 1625 4250 1398 4047 
Q 1172 3844 1172 3481 
z
" transform="scale(0.015625)"/>
       </defs>
       <use xlink:href="#DejaVuSans-30"/>
       <use xlink:href="#DejaVuSans-2e" x="63.623047"/>
       <use xlink:href="#DejaVuSans-38" x="95.410156"/>
      </g>
     </g>
    </g>
    <g id="xtick_6">
     <g id="line2d_6">
      <g>
       <use xlink:href="#me1fc65a7cf" x="414.72" y="307.584" style="stroke: #000000; stroke-width: 0.8"/>
      </g>
     </g>
     <g id="text_6">
      <!-- 1.0 -->
      <g transform="translate(406.768438 322.182437) scale(0.1 -0.1)">
       <defs>
        <path id="DejaVuSans-31" d="M 794 531 
L 1825 531 
L 1825 4091 
L 703 3866 
L 703 4441 
L 1819 4666 
L 2450 4666 
L 2450 531 
L 3481 531 
L 3481 0 
L 794 0 
L 794 531 
z
" transform="scale(0.015625)"/>
       </defs>
       <use xlink:href="#DejaVuSans-31"/>
       <use xlink:href="#DejaVuSans-2e" x="63.623047"/>
       <use xlink:href="#DejaVuSans-30" x="95.410156"/>
      </g>
     </g>
    </g>
    <g id="text_7">
     <!-- FPR -->
     <g transform="translate(226.795156 335.860562) scale(0.1 -0.1)">
      <defs>
       <path id="DejaVuSans-46" d="M 628 4666 
L 3309 4666 
L 3309 4134 
L 1259 4134 
L 1259 2759 
L 3109 2759 
L 3109 2228 
L 1259 2228 
L 1259 0 
L 628 0 
L 628 4666 
z
" transform="scale(0.015625)"/>
       <path id="DejaVuSans-50" d="M 1259 4147 
L 1259 2394 
L 2053 2394 
Q 2494 2394 2734 2622 
Q 2975 2850 2975 3272 
Q 2975 3691 2734 3919 
Q 2494 4147 2053 4147 
L 1259 4147 
z
M 628 4666 
L 2053 4666 
Q 2838 4666 3239 4311 
Q 3641 3956 3641 3272 
Q 3641 2581 3239 2228 
Q 2838 1875 2053 1875 
L 1259 1875 
L 1259 0 
L 628 0 
L 628 4666 
z
" transform="scale(0.015625)"/>
       <path id="DejaVuSans-52" d="M 2841 2188 
Q 3044 2119 3236 1894 
Q 3428 1669 3622 1275 
L 4263 0 
L 3584 0 
L 2988 1197 
Q 2756 1666 2539 1819 
Q 2322 1972 1947 1972 
L 1259 1972 
L 1259 0 
L 628 0 
L 628 4666 
L 2053 4666 
Q 2853 4666 3247 4331 
Q 3641 3997 3641 3322 
Q 3641 2881 3436 2590 
Q 3231 2300 2841 2188 
z
M 1259 4147 
L 1259 2491 
L 2053 2491 
Q 2509 2491 2742 2702 
Q 2975 2913 2975 3322 
Q 2975 3731 2742 3939 
Q 2509 4147 2053 4147 
L 1259 4147 
z
" transform="scale(0.015625)"/>
      </defs>
      <use xlink:href="#DejaVuSans-46"/>
      <use xlink:href="#DejaVuSans-50" x="57.519531"/>
      <use xlink:href="#DejaVuSans-52" x="117.822266"/>
     </g>
    </g>
   </g>
   <g id="matplotlib.axis_2">
    <g id="ytick_1">
     <g id="line2d_7">
      <defs>
       <path id="m03d14e05f0" d="M 0 0 
L -3.5 0 
" style="stroke: #000000; stroke-width: 0.8"/>
      </defs>
      <g>
       <use xlink:href="#m03d14e05f0" x="57.6" y="307.584" style="stroke: #000000; stroke-width: 0.8"/>
      </g>
     </g>
     <g id="text_8">
      <!-- 0.0 -->
      <g transform="translate(34.696875 311.383219) scale(0.1 -0.1)">
       <use xlink:href="#DejaVuSans-30"/>
       <use xlink:href="#DejaVuSans-2e" x="63.623047"/>
       <use xlink:href="#DejaVuSans-30" x="95.410156"/>
      </g>
     </g>
    </g>
    <g id="ytick_2">
     <g id="line2d_8">
      <g>
       <use xlink:href="#m03d14e05f0" x="57.6" y="256.896" style="stroke: #000000; stroke-width: 0.8"/>
      </g>
     </g>
     <g id="text_9">
      <!-- 0.2 -->
      <g transform="translate(34.696875 260.695219) scale(0.1 -0.1)">
       <use xlink:href="#DejaVuSans-30"/>
       <use xlink:href="#DejaVuSans-2e" x="63.623047"/>
       <use xlink:href="#DejaVuSans-32" x="95.410156"/>
      </g>
     </g>
    </g>
    <g id="ytick_3">
     <g id="line2d_9">
      <g>
       <use xlink:href="#m03d14e05f0" x="57.6" y="206.208" style="stroke: #000000; stroke-width: 0.8"/>
      </g>
     </g>
     <g id="text_10">
      <!-- 0.4 -->
      <g transform="translate(34.696875 210.007219) scale(0.1 -0.1)">
       <use xlink:href="#DejaVuSans-30"/>
       <use xlink:href="#DejaVuSans-2e" x="63.623047"/>
       <use xlink:href="#DejaVuSans-34" x="95.410156"/>
      </g>
     </g>
    </g>
    <g id="ytick_4">
     <g id="line2d_10">
      <g>
       <use xlink:href="#m03d14e05f0" x="57.6" y="155.52" style="stroke: #000000; stroke-width: 0.8"/>
      </g>
     </g>
     <g id="text_11">
      <!-- 0.6 -->
      <g transform="translate(34.696875 159.319219) scale(0.1 -0.1)">
       <use xlink:href="#DejaVuSans-30"/>
       <use xlink:href="#DejaVuSans-2e" x="63.623047"/>
       <use xlink:href="#DejaVuSans-36" x="95.410156"/>
      </g>
     </g>
    </g>
    <g id="ytick_5">
     <g id="line2d_11">
      <g>
       <use xlink:href="#m03d14e05f0" x="57.6" y="104.832" style="stroke: #000000; stroke-width: 0.8"/>
      </g>
     </g>
     <g id="text_12">
      <!-- 0.8 -->
      <g transform="translate(34.696875 108.631219) scale(0.1 -0.1)">
       <use xlink:href="#DejaVuSans-30"/>
       <use xlink:href="#DejaVuSans-2e" x="63.623047"/>
       <use xlink:href="#DejaVuSans-38" x="95.410156"/>
      </g>
     </g>
    </g>
    <g id="ytick_6">
     <g id="line2d_12">
      <g>
       <use xlink:href="#m03d14e05f0" x="57.6" y="54.144" style="stroke: #000000; stroke-width: 0.8"/>
      </g>
     </g>
     <g id="text_13">
      <!-- 1.0 -->
      <g transform="translate(34.696875 57.943219) scale(0.1 -0.1)">
       <use xlink:href="#DejaVuSans-31"/>
       <use xlink:href="#DejaVuSans-2e" x="63.623047"/>
       <use xlink:href="#DejaVuSans-30" x="95.410156"/>
      </g>
     </g>
    </g>
    <g id="text_14">
     <!-- TPR -->
     <g transform="translate(28.617188 184.070969) rotate(-90) scale(0.1 -0.1)">
      <defs>
       <path id="DejaVuSans-54" d="M -19 4666 
L 3928 4666 
L 3928 4134 
L 2272 4134 
L 2272 0 
L 1638 0 
L 1638 4134 
L -19 4134 
L -19 4666 
z
" transform="scale(0.015625)"/>
      </defs>
      <use xlink:href="#DejaVuSans-54"/>
      <use xlink:href="#DejaVuSans-50" x="61.083984"/>
      <use xlink:href="#DejaVuSans-52" x="121.386719"/>
     </g>
    </g>
   </g>
   <g id="line2d_13">
    <path d="M 57.6 307.584 
L 57.6 301.135145 
L 58.456403 301.135145 
L 58.456403 301.135145 
L 58.456403 295.331176 
L 59.312806 295.331176 
L 59.312806 295.331176 
L 59.312806 289.527206 
L 60.169209 289.527206 
L 60.169209 289.527206 
L 60.169209 283.723237 
L 61.025612 283.723237 
L 61.025612 283.723237 
L 61.025612 281.78858 
L 61.882014 281.78858 
L 61.882014 281.78858 
L 61.882014 274.049954 
L 62.738417 274.049954 
L 62.738417 274.049954 
L 62.738417 270.825527 
L 63.59482 270.825527 
L 63.59482 270.825527 
L 63.59482 264.376672 
L 64.451223 264.376672 
L 64.451223 261.79713 
L 65.307626 261.79713 
L 65.307626 261.79713 
L 65.307626 255.348275 
L 66.164029 255.348275 
L 66.164029 255.348275 
L 66.164029 250.834076 
L 67.020432 250.834076 
L 67.020432 250.834076 
L 67.020432 246.319878 
L 67.876835 246.319878 
L 67.876835 246.319878 
L 67.876835 245.674992 
L 68.733237 245.674992 
L 68.733237 245.674992 
L 68.733237 232.132397 
L 69.58964 232.132397 
L 69.58964 232.132397 
L 69.58964 226.973313 
L 70.446043 226.973313 
L 70.446043 226.973313 
L 70.446043 223.748885 
L 72.158849 223.748885 
L 72.158849 223.748885 
L 72.158849 220.524458 
L 73.015252 220.524458 
L 73.015252 220.524458 
L 73.015252 201.177893 
L 73.871655 201.177893 
L 73.871655 201.177893 
L 73.871655 195.373924 
L 74.728058 195.373924 
L 74.728058 195.373924 
L 74.728058 188.925069 
L 75.58446 188.925069 
L 75.58446 188.925069 
L 75.58446 185.700641 
L 76.440863 185.700641 
L 76.440863 185.700641 
L 76.440863 181.831328 
L 77.297266 181.831328 
L 77.297266 181.831328 
L 77.297266 178.606901 
L 78.153669 178.606901 
L 78.153669 178.606901 
L 78.153669 172.802931 
L 79.866475 172.802931 
L 79.866475 172.802931 
L 79.866475 169.578504 
L 81.579281 169.578504 
L 81.579281 169.578504 
L 81.579281 163.774534 
L 83.292086 163.774534 
L 83.292086 163.774534 
L 83.292086 156.680794 
L 84.148489 156.680794 
L 84.148489 156.680794 
L 84.148489 152.166595 
L 85.004892 152.166595 
L 85.004892 152.166595 
L 85.004892 151.52171 
L 85.861295 151.52171 
L 85.861295 151.52171 
L 85.861295 149.587053 
L 86.717698 149.587053 
L 86.717698 149.587053 
L 86.717698 148.942168 
L 87.574101 148.942168 
L 87.574101 148.942168 
L 87.574101 145.072855 
L 88.430504 145.072855 
L 88.430504 145.072855 
L 88.430504 143.138198 
L 89.286906 143.138198 
L 89.286906 143.138198 
L 89.286906 142.493313 
L 90.143309 142.493313 
L 90.143309 142.493313 
L 90.143309 141.203542 
L 90.999712 141.203542 
L 90.999712 141.203542 
L 90.999712 139.913771 
L 91.856115 139.913771 
L 91.856115 139.913771 
L 91.856115 139.268885 
L 92.712518 139.268885 
L 92.712518 139.268885 
L 92.712518 138.624 
L 95.281727 138.624 
L 95.281727 138.624 
L 95.281727 136.044458 
L 96.138129 136.044458 
L 96.138129 136.044458 
L 96.138129 131.53026 
L 96.994532 131.53026 
L 96.994532 131.53026 
L 96.994532 129.595603 
L 101.276547 129.595603 
L 101.276547 129.595603 
L 101.276547 128.305832 
L 102.13295 128.305832 
L 102.13295 128.305832 
L 102.13295 126.371176 
L 104.702158 126.371176 
L 104.702158 126.371176 
L 104.702158 124.436519 
L 106.414964 124.436519 
L 106.414964 124.436519 
L 106.414964 123.791634 
L 108.12777 123.791634 
L 108.12777 123.791634 
L 108.12777 121.212092 
L 110.696978 121.212092 
L 110.696978 121.212092 
L 110.696978 120.567206 
L 111.553381 120.567206 
L 111.553381 120.567206 
L 111.553381 119.277435 
L 113.266187 119.277435 
L 113.266187 119.277435 
L 113.266187 118.63255 
L 114.12259 118.63255 
L 114.12259 118.63255 
L 114.12259 116.697893 
L 114.978993 116.697893 
L 114.978993 116.697893 
L 114.978993 114.118351 
L 116.691799 114.118351 
L 116.691799 114.118351 
L 116.691799 113.473466 
L 117.548201 113.473466 
L 117.548201 113.473466 
L 117.548201 112.183695 
L 118.404604 112.183695 
L 118.404604 112.183695 
L 118.404604 111.538809 
L 120.973813 111.538809 
L 120.973813 111.538809 
L 120.973813 110.893924 
L 121.830216 110.893924 
L 121.830216 110.893924 
L 121.830216 110.249038 
L 124.399424 110.249038 
L 124.399424 110.249038 
L 124.399424 107.669496 
L 126.11223 107.669496 
L 126.11223 107.669496 
L 126.11223 107.024611 
L 126.968633 107.024611 
L 126.968633 107.024611 
L 126.968633 102.510412 
L 127.825036 102.510412 
L 127.825036 102.510412 
L 127.825036 101.865527 
L 133.819856 101.865527 
L 133.819856 101.865527 
L 133.819856 101.220641 
L 134.676259 101.220641 
L 134.676259 101.220641 
L 134.676259 99.93087 
L 136.389065 99.93087 
L 136.389065 99.93087 
L 136.389065 97.996214 
L 138.101871 97.996214 
L 138.101871 97.996214 
L 138.101871 97.351328 
L 138.958273 97.351328 
L 138.958273 97.351328 
L 138.958273 96.706443 
L 140.671079 96.706443 
L 140.671079 96.706443 
L 140.671079 96.061557 
L 142.383885 96.061557 
L 142.383885 96.061557 
L 142.383885 94.771786 
L 144.096691 94.771786 
L 144.096691 94.771786 
L 144.096691 94.126901 
L 146.665899 94.126901 
L 146.665899 94.126901 
L 146.665899 93.482015 
L 150.091511 93.482015 
L 150.091511 93.482015 
L 150.091511 92.83713 
L 151.804317 92.83713 
L 151.804317 92.83713 
L 151.804317 91.547359 
L 156.942734 91.547359 
L 156.942734 91.547359 
L 156.942734 90.257588 
L 164.65036 90.257588 
L 164.65036 90.257588 
L 164.65036 88.967817 
L 165.506763 88.967817 
L 165.506763 88.967817 
L 165.506763 88.322931 
L 166.363165 88.322931 
L 166.363165 88.322931 
L 166.363165 87.678046 
L 182.63482 87.678046 
L 182.63482 87.678046 
L 182.63482 87.03316 
L 185.204029 87.03316 
L 185.204029 87.03316 
L 185.204029 86.388275 
L 186.916835 86.388275 
L 186.916835 86.388275 
L 186.916835 85.743389 
L 189.486043 85.743389 
L 189.486043 85.743389 
L 189.486043 85.098504 
L 193.768058 85.098504 
L 193.768058 85.098504 
L 193.768058 84.453618 
L 201.475683 84.453618 
L 201.475683 84.453618 
L 201.475683 83.808733 
L 213.465324 83.808733 
L 213.465324 83.808733 
L 213.465324 83.163847 
L 214.321727 83.163847 
L 214.321727 83.163847 
L 214.321727 82.518962 
L 222.029353 82.518962 
L 222.029353 82.518962 
L 222.029353 81.874076 
L 223.742158 81.874076 
L 223.742158 81.874076 
L 223.742158 81.229191 
L 228.880576 81.229191 
L 228.880576 81.229191 
L 228.880576 80.584305 
L 238.301007 80.584305 
L 238.301007 80.584305 
L 238.301007 79.93942 
L 257.141871 79.93942 
L 257.141871 79.93942 
L 257.141871 79.294534 
L 329.079712 79.294534 
L 329.079712 79.294534 
L 329.079712 78.649649 
L 414.72 78.649649 
L 414.72 54.144 
L 414.72 54.144 
" clip-path="url(#p663df6b362)" style="fill: none; stroke: #0000ff; stroke-opacity: 0.2; stroke-width: 1.5; stroke-linecap: square"/>
   </g>
   <g id="patch_3">
    <path d="M 57.6 307.584 
L 57.6 41.472 
" style="fill: none; stroke: #000000; stroke-width: 0.8; stroke-linejoin: miter; stroke-linecap: square"/>
   </g>
   <g id="patch_4">
    <path d="M 414.72 307.584 
L 414.72 41.472 
" style="fill: none; stroke: #000000; stroke-width: 0.8; stroke-linejoin: miter; stroke-linecap: square"/>
   </g>
   <g id="patch_5">
    <path d="M 57.6 307.584 
L 414.72 307.584 
" style="fill: none; stroke: #000000; stroke-width: 0.8; stroke-linejoin: miter; stroke-linecap: square"/>
   </g>
   <g id="patch_6">
    <path d="M 57.6 41.472 
L 414.72 41.472 
" style="fill: none; stroke: #000000; stroke-width: 0.8; stroke-linejoin: miter; stroke-linecap: square"/>
   </g>
   <g id="text_15">
    <!-- Receiver Operating Characteristic (AUROC: 0.831) -->
    <g transform="translate(85.385625 35.472) scale(0.12 -0.12)">
     <defs>
      <path id="DejaVuSans-65" d="M 3597 1894 
L 3597 1613 
L 953 1613 
Q 991 1019 1311 708 
Q 1631 397 2203 397 
Q 2534 397 2845 478 
Q 3156 559 3463 722 
L 3463 178 
Q 3153 47 2828 -22 
Q 2503 -91 2169 -91 
Q 1331 -91 842 396 
Q 353 884 353 1716 
Q 353 2575 817 3079 
Q 1281 3584 2069 3584 
Q 2775 3584 3186 3129 
Q 3597 2675 3597 1894 
z
M 3022 2063 
Q 3016 2534 2758 2815 
Q 2500 3097 2075 3097 
Q 1594 3097 1305 2825 
Q 1016 2553 972 2059 
L 3022 2063 
z
" transform="scale(0.015625)"/>
      <path id="DejaVuSans-63" d="M 3122 3366 
L 3122 2828 
Q 2878 2963 2633 3030 
Q 2388 3097 2138 3097 
Q 1578 3097 1268 2742 
Q 959 2388 959 1747 
Q 959 1106 1268 751 
Q 1578 397 2138 397 
Q 2388 397 2633 464 
Q 2878 531 3122 666 
L 3122 134 
Q 2881 22 2623 -34 
Q 2366 -91 2075 -91 
Q 1284 -91 818 406 
Q 353 903 353 1747 
Q 353 2603 823 3093 
Q 1294 3584 2113 3584 
Q 2378 3584 2631 3529 
Q 2884 3475 3122 3366 
z
" transform="scale(0.015625)"/>
      <path id="DejaVuSans-69" d="M 603 3500 
L 1178 3500 
L 1178 0 
L 603 0 
L 603 3500 
z
M 603 4863 
L 1178 4863 
L 1178 4134 
L 603 4134 
L 603 4863 
z
" transform="scale(0.015625)"/>
      <path id="DejaVuSans-76" d="M 191 3500 
L 800 3500 
L 1894 563 
L 2988 3500 
L 3597 3500 
L 2284 0 
L 1503 0 
L 191 3500 
z
" transform="scale(0.015625)"/>
      <path id="DejaVuSans-72" d="M 2631 2963 
Q 2534 3019 2420 3045 
Q 2306 3072 2169 3072 
Q 1681 3072 1420 2755 
Q 1159 2438 1159 1844 
L 1159 0 
L 581 0 
L 581 3500 
L 1159 3500 
L 1159 2956 
Q 1341 3275 1631 3429 
Q 1922 3584 2338 3584 
Q 2397 3584 2469 3576 
Q 2541 3569 2628 3553 
L 2631 2963 
z
" transform="scale(0.015625)"/>
      <path id="DejaVuSans-20" transform="scale(0.015625)"/>
      <path id="DejaVuSans-4f" d="M 2522 4238 
Q 1834 4238 1429 3725 
Q 1025 3213 1025 2328 
Q 1025 1447 1429 934 
Q 1834 422 2522 422 
Q 3209 422 3611 934 
Q 4013 1447 4013 2328 
Q 4013 3213 3611 3725 
Q 3209 4238 2522 4238 
z
M 2522 4750 
Q 3503 4750 4090 4092 
Q 4678 3434 4678 2328 
Q 4678 1225 4090 567 
Q 3503 -91 2522 -91 
Q 1538 -91 948 565 
Q 359 1222 359 2328 
Q 359 3434 948 4092 
Q 1538 4750 2522 4750 
z
" transform="scale(0.015625)"/>
      <path id="DejaVuSans-70" d="M 1159 525 
L 1159 -1331 
L 581 -1331 
L 581 3500 
L 1159 3500 
L 1159 2969 
Q 1341 3281 1617 3432 
Q 1894 3584 2278 3584 
Q 2916 3584 3314 3078 
Q 3713 2572 3713 1747 
Q 3713 922 3314 415 
Q 2916 -91 2278 -91 
Q 1894 -91 1617 61 
Q 1341 213 1159 525 
z
M 3116 1747 
Q 3116 2381 2855 2742 
Q 2594 3103 2138 3103 
Q 1681 3103 1420 2742 
Q 1159 2381 1159 1747 
Q 1159 1113 1420 752 
Q 1681 391 2138 391 
Q 2594 391 2855 752 
Q 3116 1113 3116 1747 
z
" transform="scale(0.015625)"/>
      <path id="DejaVuSans-61" d="M 2194 1759 
Q 1497 1759 1228 1600 
Q 959 1441 959 1056 
Q 959 750 1161 570 
Q 1363 391 1709 391 
Q 2188 391 2477 730 
Q 2766 1069 2766 1631 
L 2766 1759 
L 2194 1759 
z
M 3341 1997 
L 3341 0 
L 2766 0 
L 2766 531 
Q 2569 213 2275 61 
Q 1981 -91 1556 -91 
Q 1019 -91 701 211 
Q 384 513 384 1019 
Q 384 1609 779 1909 
Q 1175 2209 1959 2209 
L 2766 2209 
L 2766 2266 
Q 2766 2663 2505 2880 
Q 2244 3097 1772 3097 
Q 1472 3097 1187 3025 
Q 903 2953 641 2809 
L 641 3341 
Q 956 3463 1253 3523 
Q 1550 3584 1831 3584 
Q 2591 3584 2966 3190 
Q 3341 2797 3341 1997 
z
" transform="scale(0.015625)"/>
      <path id="DejaVuSans-74" d="M 1172 4494 
L 1172 3500 
L 2356 3500 
L 2356 3053 
L 1172 3053 
L 1172 1153 
Q 1172 725 1289 603 
Q 1406 481 1766 481 
L 2356 481 
L 2356 0 
L 1766 0 
Q 1100 0 847 248 
Q 594 497 594 1153 
L 594 3053 
L 172 3053 
L 172 3500 
L 594 3500 
L 594 4494 
L 1172 4494 
z
" transform="scale(0.015625)"/>
      <path id="DejaVuSans-6e" d="M 3513 2113 
L 3513 0 
L 2938 0 
L 2938 2094 
Q 2938 2591 2744 2837 
Q 2550 3084 2163 3084 
Q 1697 3084 1428 2787 
Q 1159 2491 1159 1978 
L 1159 0 
L 581 0 
L 581 3500 
L 1159 3500 
L 1159 2956 
Q 1366 3272 1645 3428 
Q 1925 3584 2291 3584 
Q 2894 3584 3203 3211 
Q 3513 2838 3513 2113 
z
" transform="scale(0.015625)"/>
      <path id="DejaVuSans-67" d="M 2906 1791 
Q 2906 2416 2648 2759 
Q 2391 3103 1925 3103 
Q 1463 3103 1205 2759 
Q 947 2416 947 1791 
Q 947 1169 1205 825 
Q 1463 481 1925 481 
Q 2391 481 2648 825 
Q 2906 1169 2906 1791 
z
M 3481 434 
Q 3481 -459 3084 -895 
Q 2688 -1331 1869 -1331 
Q 1566 -1331 1297 -1286 
Q 1028 -1241 775 -1147 
L 775 -588 
Q 1028 -725 1275 -790 
Q 1522 -856 1778 -856 
Q 2344 -856 2625 -561 
Q 2906 -266 2906 331 
L 2906 616 
Q 2728 306 2450 153 
Q 2172 0 1784 0 
Q 1141 0 747 490 
Q 353 981 353 1791 
Q 353 2603 747 3093 
Q 1141 3584 1784 3584 
Q 2172 3584 2450 3431 
Q 2728 3278 2906 2969 
L 2906 3500 
L 3481 3500 
L 3481 434 
z
" transform="scale(0.015625)"/>
      <path id="DejaVuSans-43" d="M 4122 4306 
L 4122 3641 
Q 3803 3938 3442 4084 
Q 3081 4231 2675 4231 
Q 1875 4231 1450 3742 
Q 1025 3253 1025 2328 
Q 1025 1406 1450 917 
Q 1875 428 2675 428 
Q 3081 428 3442 575 
Q 3803 722 4122 1019 
L 4122 359 
Q 3791 134 3420 21 
Q 3050 -91 2638 -91 
Q 1578 -91 968 557 
Q 359 1206 359 2328 
Q 359 3453 968 4101 
Q 1578 4750 2638 4750 
Q 3056 4750 3426 4639 
Q 3797 4528 4122 4306 
z
" transform="scale(0.015625)"/>
      <path id="DejaVuSans-68" d="M 3513 2113 
L 3513 0 
L 2938 0 
L 2938 2094 
Q 2938 2591 2744 2837 
Q 2550 3084 2163 3084 
Q 1697 3084 1428 2787 
Q 1159 2491 1159 1978 
L 1159 0 
L 581 0 
L 581 4863 
L 1159 4863 
L 1159 2956 
Q 1366 3272 1645 3428 
Q 1925 3584 2291 3584 
Q 2894 3584 3203 3211 
Q 3513 2838 3513 2113 
z
" transform="scale(0.015625)"/>
      <path id="DejaVuSans-73" d="M 2834 3397 
L 2834 2853 
Q 2591 2978 2328 3040 
Q 2066 3103 1784 3103 
Q 1356 3103 1142 2972 
Q 928 2841 928 2578 
Q 928 2378 1081 2264 
Q 1234 2150 1697 2047 
L 1894 2003 
Q 2506 1872 2764 1633 
Q 3022 1394 3022 966 
Q 3022 478 2636 193 
Q 2250 -91 1575 -91 
Q 1294 -91 989 -36 
Q 684 19 347 128 
L 347 722 
Q 666 556 975 473 
Q 1284 391 1588 391 
Q 1994 391 2212 530 
Q 2431 669 2431 922 
Q 2431 1156 2273 1281 
Q 2116 1406 1581 1522 
L 1381 1569 
Q 847 1681 609 1914 
Q 372 2147 372 2553 
Q 372 3047 722 3315 
Q 1072 3584 1716 3584 
Q 2034 3584 2315 3537 
Q 2597 3491 2834 3397 
z
" transform="scale(0.015625)"/>
      <path id="DejaVuSans-28" d="M 1984 4856 
Q 1566 4138 1362 3434 
Q 1159 2731 1159 2009 
Q 1159 1288 1364 580 
Q 1569 -128 1984 -844 
L 1484 -844 
Q 1016 -109 783 600 
Q 550 1309 550 2009 
Q 550 2706 781 3412 
Q 1013 4119 1484 4856 
L 1984 4856 
z
" transform="scale(0.015625)"/>
      <path id="DejaVuSans-41" d="M 2188 4044 
L 1331 1722 
L 3047 1722 
L 2188 4044 
z
M 1831 4666 
L 2547 4666 
L 4325 0 
L 3669 0 
L 3244 1197 
L 1141 1197 
L 716 0 
L 50 0 
L 1831 4666 
z
" transform="scale(0.015625)"/>
      <path id="DejaVuSans-55" d="M 556 4666 
L 1191 4666 
L 1191 1831 
Q 1191 1081 1462 751 
Q 1734 422 2344 422 
Q 2950 422 3222 751 
Q 3494 1081 3494 1831 
L 3494 4666 
L 4128 4666 
L 4128 1753 
Q 4128 841 3676 375 
Q 3225 -91 2344 -91 
Q 1459 -91 1007 375 
Q 556 841 556 1753 
L 556 4666 
z
" transform="scale(0.015625)"/>
      <path id="DejaVuSans-3a" d="M 750 794 
L 1409 794 
L 1409 0 
L 750 0 
L 750 794 
z
M 750 3309 
L 1409 3309 
L 1409 2516 
L 750 2516 
L 750 3309 
z
" transform="scale(0.015625)"/>
      <path id="DejaVuSans-33" d="M 2597 2516 
Q 3050 2419 3304 2112 
Q 3559 1806 3559 1356 
Q 3559 666 3084 287 
Q 2609 -91 1734 -91 
Q 1441 -91 1130 -33 
Q 819 25 488 141 
L 488 750 
Q 750 597 1062 519 
Q 1375 441 1716 441 
Q 2309 441 2620 675 
Q 2931 909 2931 1356 
Q 2931 1769 2642 2001 
Q 2353 2234 1838 2234 
L 1294 2234 
L 1294 2753 
L 1863 2753 
Q 2328 2753 2575 2939 
Q 2822 3125 2822 3475 
Q 2822 3834 2567 4026 
Q 2313 4219 1838 4219 
Q 1578 4219 1281 4162 
Q 984 4106 628 3988 
L 628 4550 
Q 988 4650 1302 4700 
Q 1616 4750 1894 4750 
Q 2613 4750 3031 4423 
Q 3450 4097 3450 3541 
Q 3450 3153 3228 2886 
Q 3006 2619 2597 2516 
z
" transform="scale(0.015625)"/>
      <path id="DejaVuSans-29" d="M 513 4856 
L 1013 4856 
Q 1481 4119 1714 3412 
Q 1947 2706 1947 2009 
Q 1947 1309 1714 600 
Q 1481 -109 1013 -844 
L 513 -844 
Q 928 -128 1133 580 
Q 1338 1288 1338 2009 
Q 1338 2731 1133 3434 
Q 928 4138 513 4856 
z
" transform="scale(0.015625)"/>
     </defs>
     <use xlink:href="#DejaVuSans-52"/>
     <use xlink:href="#DejaVuSans-65" x="64.982422"/>
     <use xlink:href="#DejaVuSans-63" x="126.505859"/>
     <use xlink:href="#DejaVuSans-65" x="181.486328"/>
     <use xlink:href="#DejaVuSans-69" x="243.009766"/>
     <use xlink:href="#DejaVuSans-76" x="270.792969"/>
     <use xlink:href="#DejaVuSans-65" x="329.972656"/>
     <use xlink:href="#DejaVuSans-72" x="391.496094"/>
     <use xlink:href="#DejaVuSans-20" x="432.609375"/>
     <use xlink:href="#DejaVuSans-4f" x="464.396484"/>
     <use xlink:href="#DejaVuSans-70" x="543.107422"/>
     <use xlink:href="#DejaVuSans-65" x="606.583984"/>
     <use xlink:href="#DejaVuSans-72" x="668.107422"/>
     <use xlink:href="#DejaVuSans-61" x="709.220703"/>
     <use xlink:href="#DejaVuSans-74" x="770.5"/>
     <use xlink:href="#DejaVuSans-69" x="809.708984"/>
     <use xlink:href="#DejaVuSans-6e" x="837.492188"/>
     <use xlink:href="#DejaVuSans-67" x="900.871094"/>
     <use xlink:href="#DejaVuSans-20" x="964.347656"/>
     <use xlink:href="#DejaVuSans-43" x="996.134766"/>
     <use xlink:href="#DejaVuSans-68" x="1065.958984"/>
     <use xlink:href="#DejaVuSans-61" x="1129.337891"/>
     <use xlink:href="#DejaVuSans-72" x="1190.617188"/>
     <use xlink:href="#DejaVuSans-61" x="1231.730469"/>
     <use xlink:href="#DejaVuSans-63" x="1293.009766"/>
     <use xlink:href="#DejaVuSans-74" x="1347.990234"/>
     <use xlink:href="#DejaVuSans-65" x="1387.199219"/>
     <use xlink:href="#DejaVuSans-72" x="1448.722656"/>
     <use xlink:href="#DejaVuSans-69" x="1489.835938"/>
     <use xlink:href="#DejaVuSans-73" x="1517.619141"/>
     <use xlink:href="#DejaVuSans-74" x="1569.71875"/>
     <use xlink:href="#DejaVuSans-69" x="1608.927734"/>
     <use xlink:href="#DejaVuSans-63" x="1636.710938"/>
     <use xlink:href="#DejaVuSans-20" x="1691.691406"/>
     <use xlink:href="#DejaVuSans-28" x="1723.478516"/>
     <use xlink:href="#DejaVuSans-41" x="1762.492188"/>
     <use xlink:href="#DejaVuSans-55" x="1830.900391"/>
     <use xlink:href="#DejaVuSans-52" x="1904.09375"/>
     <use xlink:href="#DejaVuSans-4f" x="1973.576172"/>
     <use xlink:href="#DejaVuSans-43" x="2052.287109"/>
     <use xlink:href="#DejaVuSans-3a" x="2122.111328"/>
     <use xlink:href="#DejaVuSans-20" x="2155.802734"/>
     <use xlink:href="#DejaVuSans-30" x="2187.589844"/>
     <use xlink:href="#DejaVuSans-2e" x="2251.212891"/>
     <use xlink:href="#DejaVuSans-38" x="2283"/>
     <use xlink:href="#DejaVuSans-33" x="2346.623047"/>
     <use xlink:href="#DejaVuSans-31" x="2410.246094"/>
     <use xlink:href="#DejaVuSans-29" x="2473.869141"/>
    </g>
   </g>
  </g>
 </g>
 <defs>
  <clipPath id="p663df6b362">
   <rect x="57.6" y="41.472" width="357.12" height="266.112"/>
  </clipPath>
 </defs>
</svg>
